<?xml version="1.0" encoding="UTF-8" standalone="no"?>
<!-- Created with Inkscape (http://www.inkscape.org/) -->

<svg
   width="600"
   height="600"
   viewBox="0 0 600 600"
   version="1.1"
   id="svg1"
   xml:space="preserve"
   inkscape:version="1.3 (0e150ed6c4, 2023-07-21)"
   sodipodi:docname="InfraredAces-Logo.svg"
   xmlns:inkscape="http://www.inkscape.org/namespaces/inkscape"
   xmlns:sodipodi="http://sodipodi.sourceforge.net/DTD/sodipodi-0.dtd"
   xmlns="http://www.w3.org/2000/svg"
   xmlns:svg="http://www.w3.org/2000/svg"><sodipodi:namedview
     id="namedview1"
     pagecolor="#ffffff"
     bordercolor="#000000"
     borderopacity="0.25"
     inkscape:showpageshadow="2"
     inkscape:pageopacity="0.0"
     inkscape:pagecheckerboard="0"
     inkscape:deskcolor="#d1d1d1"
     inkscape:document-units="px"
     inkscape:zoom="1.1869438"
     inkscape:cx="349.63745"
     inkscape:cy="296.55996"
     inkscape:window-width="1920"
     inkscape:window-height="1008"
     inkscape:window-x="1920"
     inkscape:window-y="505"
     inkscape:window-maximized="1"
     inkscape:current-layer="svg1" /><defs
     id="defs1"><inkscape:path-effect
       effect="fillet_chamfer"
       id="path-effect8"
       is_visible="true"
       lpeversion="1"
       nodesatellites_param="F,1,0,1,0,0.09,0,1 @ F,1,0,1,0,0.09,0,1 @ F,1,0,1,0,0.09,0,1 @ F,1,0,1,0,0.09,0,1"
       radius="9"
       unit="px"
       method="auto"
       mode="F"
       chamfer_steps="1"
       flexible="true"
       use_knot_distance="true"
       apply_no_radius="true"
       apply_with_radius="true"
       only_selected="false"
       hide_knots="false" /><inkscape:path-effect
       effect="fillet_chamfer"
       id="path-effect6"
       is_visible="true"
       lpeversion="1"
       nodesatellites_param="F,1,0,1,0,0.09,0,1 @ F,1,0,1,0,0.09,0,1 @ F,1,0,1,0,0.09,0,1 @ F,1,0,1,0,0.09,0,1"
       radius="9"
       unit="px"
       method="auto"
       mode="F"
       chamfer_steps="1"
       flexible="true"
       use_knot_distance="true"
       apply_no_radius="true"
       apply_with_radius="true"
       only_selected="false"
       hide_knots="false" /><inkscape:path-effect
       effect="fillet_chamfer"
       id="path-effect4"
       is_visible="true"
       lpeversion="1"
       nodesatellites_param="F,1,0,1,0,0.09,0,1 @ F,1,0,1,0,0.09,0,1 @ F,1,0,1,0,0.09,0,1 @ F,1,0,1,0,0.09,0,1"
       radius="9"
       unit="px"
       method="auto"
       mode="F"
       chamfer_steps="1"
       flexible="true"
       use_knot_distance="true"
       apply_no_radius="true"
       apply_with_radius="true"
       only_selected="false"
       hide_knots="false" /><inkscape:path-effect
       effect="fillet_chamfer"
       id="path-effect1"
       is_visible="true"
       lpeversion="1"
       nodesatellites_param="F,1,0,1,0,0.09,0,1 @ F,1,0,1,0,0.09,0,1 @ F,1,0,1,0,0.09,0,1 @ F,1,0,1,0,0.09,0,1"
       radius="9"
       unit="px"
       method="auto"
       mode="F"
       chamfer_steps="1"
       flexible="true"
       use_knot_distance="true"
       apply_no_radius="true"
       apply_with_radius="true"
       only_selected="false"
       hide_knots="false" /></defs><g
     id="g8"
     transform="translate(-14.847759,-76.018706)"><g
       inkscape:label="heart card"
       id="layer1"
       style="display:inline"
       transform="rotate(-30,341.59256,415.33937)"><path
         style="fill:#ffffff;fill-opacity:1;stroke:#000000;stroke-width:3.77953;stroke-linecap:round;stroke-linejoin:round;stroke-miterlimit:5"
         id="rect1"
         width="200.59702"
         height="247.59402"
         x="131.05675"
         y="147.86867"
         inkscape:path-effect="#path-effect1"
         sodipodi:type="rect"
         d="M 149.11048,147.86867 H 309.3703 a 22.283462,22.283462 45 0 1 22.28346,22.28346 v 207.25683 a 18.053731,18.053731 135 0 1 -18.05373,18.05373 H 153.34021 A 22.283462,22.283462 45 0 1 131.05675,373.17923 V 165.9224 a 18.053731,18.053731 135 0 1 18.05373,-18.05373 z"
         transform="matrix(1.1725445,0,0,1.3394307,-6.9548184,-31.979997)" /><text
         xml:space="preserve"
         style="font-size:73.1393px;line-height:1;font-family:'Neon 80s';-inkscape-font-specification:'Neon 80s';text-align:center;text-anchor:middle;fill:#000000;fill-opacity:1;stroke:#000000;stroke-width:2.59161;stroke-linecap:round;stroke-linejoin:round;stroke-miterlimit:5;stroke-opacity:1"
         x="202.07686"
         y="214.54903"
         id="text1"
         transform="scale(0.90821217,1.1010643)"><tspan
           sodipodi:role="line"
           id="tspan1"
           x="202.07686"
           y="214.54903"
           style="stroke:#000000;stroke-width:2.59161;stroke-opacity:1">A</tspan></text><text
         xml:space="preserve"
         style="font-size:73.1393px;line-height:1;font-family:'Neon 80s';-inkscape-font-specification:'Neon 80s';text-align:center;text-anchor:middle;fill:#000000;fill-opacity:1;stroke:#000000;stroke-width:2.59161;stroke-linecap:round;stroke-linejoin:round;stroke-miterlimit:5;stroke-opacity:1"
         x="-379.96777"
         y="-388.31775"
         id="text1-0"
         transform="scale(-0.90821217,-1.1010643)"><tspan
           sodipodi:role="line"
           id="tspan1-3"
           x="-379.96777"
           y="-388.31775"
           style="stroke:#000000;stroke-width:2.59161;stroke-opacity:1">A</tspan></text><path
         sodipodi:nodetypes="ccccccccccccccccccccc"
         id="path30"
         d="m 183.1205,306.22335 c -0.0524,-0.0943 -0.27744,-0.77623 -0.5002,-1.51536 -1.41169,-4.6843 -4.03236,-9.42768 -8.42099,-15.24196 -1.64881,-2.18441 -3.20074,-4.11874 -7.39724,-9.2199 -4.85903,-5.90651 -6.25086,-7.79865 -7.65633,-10.40845 -0.82996,-1.54114 -1.69006,-3.88609 -1.9731,-5.37944 -0.28288,-1.49247 -0.28749,-3.93081 -0.01,-5.20047 1.1294,-5.16458 5.7169,-9.06088 11.20246,-9.51459 6.28413,-0.51975 11.62957,2.6548 14.4382,8.57454 l 0.62717,1.32189 0.47203,-1.04428 c 0.70138,-1.5517 1.37685,-2.60116 2.51697,-3.91059 2.90279,-3.33385 6.35745,-4.96693 10.51925,-4.97265 1.8642,-0.003 2.93243,0.15217 4.52099,0.65485 2.37586,0.7518 4.16434,1.92298 5.75717,3.77008 4.15097,4.81358 3.65948,11.37133 -1.45421,19.40293 -1.19287,1.87352 -3.34514,4.64556 -6.30503,8.12061 -3.40852,4.00177 -5.07397,6.03555 -6.77908,8.27835 -4.08714,5.376 -6.83591,10.26079 -8.34787,14.83484 -0.23065,0.69776 -0.4723,1.34796 -0.537,1.44487 -0.15024,0.22505 -0.54948,0.22786 -0.67335,0.005 z"
         style="fill:#000000;fill-opacity:1;stroke-width:0.152554"
         inkscape:label="heart" /><path
         sodipodi:nodetypes="ccccccccccccccccccccc"
         id="path30-1"
         d="m 345.49941,357.57175 c 0.0524,0.0943 0.27744,0.77623 0.50019,1.51536 1.4117,4.6843 4.03236,9.42768 8.421,15.24196 1.64881,2.18441 3.20074,4.11874 7.39724,9.2199 4.85903,5.90651 6.25086,7.79865 7.65633,10.40845 0.82996,1.54114 1.69006,3.88609 1.9731,5.37944 0.28288,1.49247 0.28749,3.93081 0.01,5.20047 -1.1294,5.16458 -5.71691,9.06088 -11.20247,9.51459 -6.28412,0.51975 -11.62956,-2.6548 -14.43819,-8.57454 l -0.62717,-1.32189 -0.47203,1.04428 c -0.70139,1.5517 -1.37685,2.60116 -2.51697,3.91059 -2.90279,3.33385 -6.35745,4.96693 -10.51925,4.97265 -1.8642,0.003 -2.93243,-0.15217 -4.52099,-0.65485 -2.37586,-0.7518 -4.16434,-1.92298 -5.75717,-3.77008 -4.15097,-4.81358 -3.65948,-11.37133 1.45421,-19.40293 1.19286,-1.87352 3.34514,-4.64556 6.30503,-8.12061 3.40852,-4.00177 5.07397,-6.03555 6.77908,-8.27835 4.08714,-5.376 6.83591,-10.26079 8.34787,-14.83484 0.23065,-0.69776 0.4723,-1.34796 0.537,-1.44487 0.15024,-0.22505 0.54948,-0.22786 0.67335,-0.005 z"
         style="display:inline;fill:#000000;fill-opacity:1;stroke-width:0.152554"
         inkscape:label="heart" /></g><g
       inkscape:label="diamond card"
       id="g5"
       style="display:inline"
       transform="rotate(-15,394.84208,240.31423)"><path
         style="fill:#ffffff;fill-opacity:1;stroke:#000000;stroke-width:3.77953;stroke-linecap:round;stroke-linejoin:round;stroke-miterlimit:5"
         id="path4"
         width="200.59702"
         height="247.59402"
         x="131.05675"
         y="147.86867"
         inkscape:path-effect="#path-effect6"
         sodipodi:type="rect"
         d="M 149.11048,147.86867 H 309.3703 a 22.283462,22.283462 45 0 1 22.28346,22.28346 v 207.25683 a 18.053731,18.053731 135 0 1 -18.05373,18.05373 H 153.34021 A 22.283462,22.283462 45 0 1 131.05675,373.17923 V 165.9224 a 18.053731,18.053731 135 0 1 18.05373,-18.05373 z"
         transform="matrix(1.1725445,0,0,1.3394307,-6.9548184,-31.979997)" /><text
         xml:space="preserve"
         style="font-size:73.1393px;line-height:1;font-family:'Neon 80s';-inkscape-font-specification:'Neon 80s';text-align:center;text-anchor:middle;fill:#000000;fill-opacity:1;stroke:#000000;stroke-width:2.59161;stroke-linecap:round;stroke-linejoin:round;stroke-miterlimit:5;stroke-opacity:1"
         x="202.07686"
         y="214.54903"
         id="text4"
         transform="scale(0.90821217,1.1010643)"><tspan
           sodipodi:role="line"
           id="tspan4"
           x="202.07686"
           y="214.54903"
           style="stroke:#000000;stroke-width:2.59161;stroke-opacity:1">A</tspan></text><text
         xml:space="preserve"
         style="font-size:73.1393px;line-height:1;font-family:'Neon 80s';-inkscape-font-specification:'Neon 80s';text-align:center;text-anchor:middle;fill:#000000;fill-opacity:1;stroke:#000000;stroke-width:2.59161;stroke-linecap:round;stroke-linejoin:round;stroke-miterlimit:5;stroke-opacity:1"
         x="-379.96777"
         y="-388.31775"
         id="text5"
         transform="scale(-0.90821217,-1.1010643)"><tspan
           sodipodi:role="line"
           id="tspan5"
           x="-379.96777"
           y="-388.31775"
           style="stroke:#000000;stroke-width:2.59161;stroke-opacity:1">A</tspan></text><path
         sodipodi:nodetypes="ccccc"
         id="path2139"
         d="m 183.48001,239.081 c -8.11219,13.49944 -17.24448,26.48515 -26.5225,38.95715 9.7152,12.472 18.99322,25.45771 26.5225,38.95715 7.82074,-13.7563 16.37011,-26.87044 26.5225,-38.95715 -9.86093,-12.472 -18.84749,-25.71457 -26.5225,-38.95715 z"
         style="fill:#000000;fill-opacity:1;fill-rule:evenodd;stroke:none;stroke-width:0.209628pt;stroke-linecap:butt;stroke-linejoin:miter;stroke-opacity:1"
         inkscape:label="diamond" /><path
         sodipodi:nodetypes="ccccc"
         id="path2139-6"
         d="m 345.14001,346.799 c -8.11219,13.49944 -17.24448,26.48515 -26.5225,38.95715 9.7152,12.472 18.99322,25.45771 26.5225,38.95715 7.82074,-13.7563 16.37011,-26.87044 26.5225,-38.95715 -9.86093,-12.472 -18.84749,-25.71457 -26.5225,-38.95715 z"
         style="display:inline;fill:#000000;fill-opacity:1;fill-rule:evenodd;stroke:none;stroke-width:0.209628pt;stroke-linecap:butt;stroke-linejoin:miter;stroke-opacity:1"
         inkscape:label="diamond" /></g><g
       inkscape:label="club card"
       id="g3"
       style="display:inline"
       transform="translate(95.680486,28.102645)"><path
         style="fill:#ffffff;fill-opacity:1;stroke:#000000;stroke-width:3.77953;stroke-linecap:round;stroke-linejoin:round;stroke-miterlimit:5"
         id="path1"
         width="200.59702"
         height="247.59402"
         x="131.05675"
         y="147.86867"
         inkscape:path-effect="#path-effect4"
         sodipodi:type="rect"
         d="M 149.11048,147.86867 H 309.3703 a 22.283462,22.283462 45 0 1 22.28346,22.28346 v 207.25683 a 18.053731,18.053731 135 0 1 -18.05373,18.05373 H 153.34021 A 22.283462,22.283462 45 0 1 131.05675,373.17923 V 165.9224 a 18.053731,18.053731 135 0 1 18.05373,-18.05373 z"
         transform="matrix(1.1725445,0,0,1.3394307,-6.9548184,-31.979997)" /><text
         xml:space="preserve"
         style="font-size:73.1393px;line-height:1;font-family:'Neon 80s';-inkscape-font-specification:'Neon 80s';text-align:center;text-anchor:middle;fill:#000000;fill-opacity:1;stroke:#000000;stroke-width:2.59161;stroke-linecap:round;stroke-linejoin:round;stroke-miterlimit:5;stroke-opacity:1"
         x="202.07686"
         y="214.54903"
         id="text2"
         transform="scale(0.90821217,1.1010643)"><tspan
           sodipodi:role="line"
           id="tspan2"
           x="202.07686"
           y="214.54903"
           style="stroke:#000000;stroke-width:2.59161;stroke-opacity:1">A</tspan></text><path
         sodipodi:nodetypes="czcccczczc"
         id="rect3667"
         d="m 178.28876,273.82423 c -9.73926,-4.65232 -24.06539,0.89699 -20.67585,13.41516 3.30314,12.19905 17.56801,9.52193 22.5008,2.09615 -2.05789,14.07973 -5.672,16.27172 -7.83823,19.32821 h 22.99844 c -2.33021,-3.26867 -6.56147,-5.24848 -9.04286,-19.52117 4.97055,7.41328 19.91325,9.98322 23.16866,-2.03957 3.20238,-11.82693 -11.23288,-18.56222 -20.83197,-13.20825 9.20462,-6.18091 12.51022,-26.48082 -4.92331,-26.48082 -17.60561,0 -14.66817,20.6968 -5.35568,26.41029 z"
         style="color:#000000;display:inline;overflow:visible;visibility:visible;fill:#000000;fill-opacity:1;fill-rule:nonzero;stroke:#000000;stroke-width:0.299882;stroke-linecap:butt;stroke-linejoin:miter;stroke-miterlimit:4;stroke-dashoffset:0;stroke-opacity:1;marker:none;marker-start:none;marker-mid:none;marker-end:none"
         inkscape:label="club" /><path
         sodipodi:nodetypes="czcccczczc"
         id="rect3667-8"
         d="m 350.33126,389.97147 c 9.73926,4.65232 24.06539,-0.89699 20.67585,-13.41516 -3.30314,-12.19905 -17.56801,-9.52194 -22.5008,-2.09616 2.05789,-14.07972 5.672,-16.27171 7.83823,-19.32821 H 333.3461 c 2.33021,3.26868 6.56147,5.24849 9.04286,19.52117 -4.97055,-7.41328 -19.91325,-9.98322 -23.16866,2.03958 -3.20238,11.82693 11.23288,18.56222 20.83197,13.20825 -9.20462,6.18091 -12.51022,26.48082 4.92331,26.48082 17.60561,0 14.66817,-20.6968 5.35568,-26.41029 z"
         style="color:#000000;display:inline;overflow:visible;visibility:visible;fill:#000000;fill-opacity:1;fill-rule:nonzero;stroke:#000000;stroke-width:0.299882;stroke-linecap:butt;stroke-linejoin:miter;stroke-miterlimit:4;stroke-dashoffset:0;stroke-opacity:1;marker:none;marker-start:none;marker-mid:none;marker-end:none"
         inkscape:label="club" /><text
         xml:space="preserve"
         style="font-size:73.1393px;line-height:1;font-family:'Neon 80s';-inkscape-font-specification:'Neon 80s';text-align:center;text-anchor:middle;fill:#000000;fill-opacity:1;stroke:#000000;stroke-width:2.59161;stroke-linecap:round;stroke-linejoin:round;stroke-miterlimit:5;stroke-opacity:1"
         x="-379.96777"
         y="-388.31775"
         id="text3"
         transform="scale(-0.90821217,-1.1010643)"><tspan
           sodipodi:role="line"
           id="tspan3"
           x="-379.96777"
           y="-388.31775"
           style="stroke:#000000;stroke-width:2.59161;stroke-opacity:1">A</tspan></text></g><g
       inkscape:label="spade card"
       id="g7"
       style="display:inline"
       transform="rotate(15,181.36319,956.46227)"><path
         style="fill:#ffffff;fill-opacity:1;stroke:#000000;stroke-width:3.77953;stroke-linecap:round;stroke-linejoin:round;stroke-miterlimit:5"
         id="path6"
         width="200.59702"
         height="247.59402"
         x="131.05675"
         y="147.86867"
         inkscape:path-effect="#path-effect8"
         sodipodi:type="rect"
         d="M 149.11048,147.86867 H 309.3703 a 22.283462,22.283462 45 0 1 22.28346,22.28346 v 207.25683 a 18.053731,18.053731 135 0 1 -18.05373,18.05373 H 153.34021 A 22.283462,22.283462 45 0 1 131.05675,373.17923 V 165.9224 a 18.053731,18.053731 135 0 1 18.05373,-18.05373 z"
         transform="matrix(1.1725445,0,0,1.3394307,-6.9548184,-31.979997)" /><text
         xml:space="preserve"
         style="font-size:73.1393px;line-height:1;font-family:'Neon 80s';-inkscape-font-specification:'Neon 80s';text-align:center;text-anchor:middle;fill:#000000;fill-opacity:1;stroke:#000000;stroke-width:2.59161;stroke-linecap:round;stroke-linejoin:round;stroke-miterlimit:5;stroke-opacity:1"
         x="202.07686"
         y="214.54903"
         id="text6"
         transform="scale(0.90821217,1.1010643)"><tspan
           sodipodi:role="line"
           id="tspan6"
           x="202.07686"
           y="214.54903"
           style="stroke:#000000;stroke-width:2.59161;stroke-opacity:1">A</tspan></text><path
         style="fill:#000000;fill-opacity:1;fill-rule:evenodd;stroke:#000000;stroke-width:0.14641pt;stroke-linecap:butt;stroke-linejoin:miter;stroke-opacity:1"
         d="m 165.90918,268.22636 c -20.88633,21.33833 -0.41199,36.81644 16.10166,26.62905 -3.11805,11.11521 -4.83276,11.98981 -6.72576,14.91699 h 17.82974 c -2.2887,-2.95588 -4.69226,-3.80178 -7.12747,-14.85372 16.86004,9.68515 34.62965,-7.20507 15.9214,-26.69232 -12.23522,-10.70227 -16.98536,-20.47298 -17.99978,-21.86039 -0.97335,1.15597 -6.70797,11.35669 -17.99979,21.86039 z"
         id="path2076"
         sodipodi:nodetypes="cccccccc"
         inkscape:label="spade" /><path
         style="fill:#000000;fill-opacity:1;fill-rule:evenodd;stroke:#000000;stroke-width:0.14641pt;stroke-linecap:butt;stroke-linejoin:miter;stroke-opacity:1"
         d="m 362.71084,395.56965 c 20.88633,-21.33833 0.41199,-36.81644 -16.10166,-26.62905 3.11805,-11.11521 4.83276,-11.98981 6.72576,-14.91699 H 335.5052 c 2.2887,2.95588 4.69226,3.80178 7.12747,14.85372 -16.86004,-9.68515 -34.62965,7.20507 -15.9214,26.69232 12.23522,10.70227 16.98536,20.47298 17.99978,21.86039 0.97335,-1.15597 6.70797,-11.35669 17.99979,-21.86039 z"
         id="path2076-1"
         sodipodi:nodetypes="cccccccc"
         inkscape:label="spade" /><text
         xml:space="preserve"
         style="font-size:73.1393px;line-height:1;font-family:'Neon 80s';-inkscape-font-specification:'Neon 80s';text-align:center;text-anchor:middle;fill:#000000;fill-opacity:1;stroke:#000000;stroke-width:2.59161;stroke-linecap:round;stroke-linejoin:round;stroke-miterlimit:5;stroke-opacity:1"
         x="-379.96777"
         y="-388.31775"
         id="text7"
         transform="scale(-0.90821217,-1.1010643)"><tspan
           sodipodi:role="line"
           id="tspan7"
           x="-379.96777"
           y="-388.31775"
           style="stroke:#000000;stroke-width:2.59161;stroke-opacity:1">A</tspan></text><g
         id="g9"
         transform="matrix(3.8019597e-8,4.6214495,-4.6214495,3.8019597e-8,312.80647,233.64607)"
         inkscape:label="IR emitter"><rect
           style="fill:none;fill-opacity:1;stroke:#000000;stroke-opacity:1"
           id="rect14820"
           width="21.259842"
           height="7.0866141"
           x="10.629943"
           y="7.0866184" /><path
           style="fill:none;fill-opacity:0.75;fill-rule:evenodd;stroke:#000000;stroke-width:1px;stroke-linecap:butt;stroke-linejoin:miter;stroke-opacity:1"
           d="M 10.629917,10.629913 H 3.5433071"
           id="path14822"
           sodipodi:nodetypes="cc" /><path
           style="fill:none;fill-opacity:0.75;fill-rule:evenodd;stroke:#000000;stroke-width:1px;stroke-linecap:butt;stroke-linejoin:miter;stroke-opacity:1"
           d="m 31.889767,10.629913 h 7.08661"
           id="path14824"
           sodipodi:nodetypes="cc" /><path
           style="fill:none;fill-opacity:0.75;fill-rule:evenodd;stroke:#000000;stroke-width:1px;stroke-linecap:butt;stroke-linejoin:miter;stroke-opacity:1"
           d="M 3.5433071,17.716535 10.629917,3.5433003 h 21.25985 l 7.08661,14.1732347"
           id="path14826"
           sodipodi:nodetypes="cccc" /></g></g></g></svg>
